<svg width="64" height="160" viewBox="0 0 64 160" xmlns="http://www.w3.org/2000/svg">
  
  <g transform="translate(-2, 0) scale(1.05)">
    <path d="M40 133C40 133 28 125 17 125C20 124 28 125 29 126C22 120 3 99 1 77C4 83 10 94 19 101C19 101 7 89 5 72C3 54 4 30 12 12C24 30 55 64 38 93C38 93 48 82 47 63C52 74 58 95 46 112C46 112 56 101 56 88C57 94 59 107 49 120C49 120 53 116 57 115C51 120 47 125 42 132C42 132 41 134 40 133Z" fill="#A8321C"></path>
    <path d="M12 12C6 27 4 45 5 61C11 70 19 79 27 83C30 77 36 66 39 53C32 37 19 22 12 12Z" fill="#8E2614"></path>
    <path d="M14 24C14 24 15 26 15 30C16 33 17 38 19 44C20 50 22 56 23 63C24 67 25 71 26 75C27 79 27 83 28 87C29 90 30 94 31 98C32 101 33 105 34 108C35 112 36 115 37 118C38 121 39 124 40 126C41 129 42 131 42 131C42 131 42 131 42 132C42 132 42 132 42 132C42 132 42 131 42 131Z" fill="#8E2614"></path>
  </g>
</svg>